<svg width="186" height="74" viewBox="0 0 186 74" fill="none" xmlns="http://www.w3.org/2000/svg">
<g clip-path="url(#clip0_1_7)">
<path d="M83.07 29.39C82.6397 29.3763 82.2114 29.4539 81.8133 29.6177C81.4152 29.7814 81.0562 30.0276 80.76 30.34C80.1363 31.0385 79.8129 31.9547 79.86 32.89C79.8145 33.822 80.1378 34.7345 80.76 35.43C81.0517 35.7515 81.4087 36.007 81.807 36.1794C82.2054 36.3519 82.636 36.4373 83.07 36.43C83.5037 36.4354 83.9337 36.3491 84.3318 36.1767C84.7299 36.0044 85.0871 35.7499 85.38 35.43C86.0022 34.7345 86.3255 33.822 86.28 32.89C86.3271 31.9547 86.0037 31.0385 85.38 30.34C85.0827 30.0291 84.7235 29.7839 84.3256 29.6203C83.9278 29.4567 83.5 29.3782 83.07 29.39Z" fill="#1D1D1B"/>
<path d="M135.33 29.16C134.575 29.1347 133.836 29.3833 133.25 29.86C132.689 30.3532 132.333 31.0379 132.25 31.78H138.46C138.368 31.0437 138.013 30.3654 137.46 29.87C136.862 29.3781 136.103 29.1251 135.33 29.16Z" fill="#1D1D1B"/>
<path d="M108.11 29.16C107.355 29.1337 106.616 29.3825 106.03 29.86C105.465 30.3495 105.107 31.0361 105.03 31.78H111.23C111.145 31.0414 110.788 30.3608 110.23 29.87C109.636 29.3787 108.88 29.1257 108.11 29.16Z" fill="#1D1D1B"/>
<path d="M0.06 0V16.52H0V22.79H51.61C52.9067 22.76 54.1951 23.0054 55.39 23.51C56.4118 23.9397 57.2786 24.6702 57.8752 25.6044C58.4718 26.5386 58.77 27.6323 58.73 28.74C58.7723 29.8471 58.4699 30.9401 57.8644 31.868C57.259 32.7958 56.3804 33.5128 55.35 33.92L59 39.19H55L51.83 34.62H48.3V39.19H0V54.9H0.06V73.33H58.71C67.9833 73.33 75.3833 72.0967 80.91 69.63C83.5754 68.4894 85.9485 66.7609 87.8516 64.5738C89.7548 62.3866 91.1387 59.7975 91.9 57H92.35C96.69 67.7733 107.023 73.1567 123.35 73.15H148.99C161.25 73.15 170.333 70.2333 176.24 64.4C182.147 58.5667 185.1 49.3 185.1 36.6V0H0.06ZM73.74 33.92H64.21C64.3657 34.6698 64.8021 35.3316 65.43 35.77C66.1343 36.2446 66.9713 36.4828 67.82 36.45C68.4137 36.4599 69.0039 36.3581 69.56 36.15C70.0984 35.946 70.5887 35.6328 71 35.23L72.94 37.34C72.2748 38.0368 71.4635 38.5776 70.5644 38.9234C69.6653 39.2692 68.7007 39.4115 67.74 39.34C66.4475 39.3741 65.1654 39.0999 64 38.54C62.9537 38.0316 62.0755 37.2333 61.47 36.24C60.8896 35.2207 60.5844 34.0679 60.5844 32.895C60.5844 31.7221 60.8896 30.5693 61.47 29.55C62.0419 28.5675 62.8765 27.7641 63.88 27.23C64.9307 26.6976 66.0921 26.4201 67.27 26.4201C68.4479 26.4201 69.6093 26.6976 70.66 27.23C71.637 27.7438 72.4483 28.5239 73 29.48C73.5845 30.5342 73.8779 31.7249 73.85 32.93C73.85 32.93 73.79 33.31 73.74 33.92ZM89.16 36.29C88.6349 37.2465 87.8519 38.0365 86.9 38.57C85.9212 39.1108 84.8181 39.3866 83.7 39.37C82.9956 39.4088 82.2912 39.2928 81.6365 39.0302C80.9817 38.7676 80.3924 38.3648 79.91 37.85V43.73H76.25V26.58H79.74V28C80.234 27.4353 80.8525 26.9932 81.5467 26.7086C82.2409 26.424 82.9918 26.3046 83.74 26.36C84.8576 26.348 85.9595 26.6235 86.94 27.16C87.8919 27.6935 88.6749 28.4835 89.2 29.44C89.7667 30.4992 90.0427 31.6895 90 32.89C90.0221 34.0773 89.7325 35.2496 89.16 36.29ZM100.24 29.77L99.42 29.72C98.9786 29.7004 98.5376 29.768 98.1224 29.919C97.7071 30.07 97.3257 30.3014 97 30.6C96.6832 30.9585 96.4413 31.3768 96.2885 31.8301C96.1356 32.2835 96.075 32.7629 96.11 33.24V39.19H92.41V26.58H95.91V28.25C96.3549 27.631 96.9647 27.1494 97.67 26.86C98.4879 26.5386 99.3614 26.3823 100.24 26.4V29.77ZM114.58 33.92H105C105.156 34.6698 105.592 35.3316 106.22 35.77C106.926 36.2409 107.762 36.4787 108.61 36.45C109.207 36.4609 109.801 36.3591 110.36 36.15C110.888 35.9434 111.368 35.6302 111.77 35.23L113.77 37.34C113.104 38.0362 112.293 38.5766 111.394 38.9224C110.495 39.2682 109.531 39.4108 108.57 39.34C107.262 39.3685 105.966 39.0839 104.79 38.51C103.746 37.9983 102.869 37.2008 102.26 36.21C101.661 35.1965 101.353 34.0373 101.37 32.86C101.356 31.6876 101.66 30.5332 102.25 29.52C102.826 28.5372 103.664 27.7339 104.67 27.2C105.721 26.6676 106.882 26.3901 108.06 26.3901C109.238 26.3901 110.399 26.6676 111.45 27.2C112.437 27.7221 113.253 28.5171 113.8 29.49C114.388 30.5432 114.685 31.734 114.66 32.94C114.66 32.94 114.62 33.31 114.58 33.92ZM127.35 39.19H116.1V37L122.52 29.4H116.26V26.58H127.13V28.79L120.72 36.38H127.35V39.19ZM141.8 33.92H132.27C132.423 34.6682 132.856 35.3298 133.48 35.77C134.186 36.2409 135.022 36.4787 135.87 36.45C136.467 36.4609 137.061 36.3591 137.62 36.15C138.151 35.9436 138.635 35.6305 139.04 35.23L141 37.34C140.334 38.0362 139.523 38.5766 138.624 38.9224C137.725 39.2682 136.761 39.4108 135.8 39.34C134.495 39.3696 133.202 39.085 132.03 38.51C130.981 38.0049 130.102 37.2058 129.5 36.21C128.896 35.1983 128.588 34.0379 128.61 32.86C128.591 31.687 128.896 30.5314 129.49 29.52C130.062 28.5375 130.896 27.7341 131.9 27.2C132.951 26.6676 134.112 26.3901 135.29 26.3901C136.468 26.3901 137.629 26.6676 138.68 27.2C139.651 27.728 140.455 28.518 141 29.48C141.58 30.5359 141.873 31.7255 141.85 32.93C141.85 32.93 141.85 33.31 141.8 33.92ZM157.19 39.19H153.54V32.53C153.603 31.7307 153.368 30.9365 152.88 30.3C152.637 30.0442 152.341 29.8451 152.013 29.7172C151.684 29.5893 151.332 29.5356 150.98 29.56C150.574 29.5403 150.169 29.6057 149.79 29.7521C149.411 29.8985 149.067 30.1226 148.78 30.41C148.187 31.136 147.907 32.0675 148 33V39.23H144.35V26.58H147.84V28.06C148.338 27.5176 148.954 27.0968 149.64 26.83C150.392 26.5366 151.193 26.3906 152 26.4C152.692 26.3683 153.383 26.4759 154.032 26.7164C154.681 26.9569 155.276 27.3254 155.78 27.8C156.289 28.3667 156.677 29.0317 156.92 29.7541C157.162 30.4764 157.254 31.2408 157.19 32V39.19ZM167.3 39.19C166.76 39.3207 166.206 39.3845 165.65 39.38C164.387 39.4609 163.141 39.0527 162.17 38.24C161.739 37.7947 161.407 37.2635 161.195 36.6811C160.983 36.0987 160.896 35.4782 160.94 34.86V29.68H159V26.86H160.95V23.8H164.6V26.86H167.74V29.68H164.6V34.81C164.581 35.2426 164.723 35.6669 165 36C165.152 36.149 165.334 36.2643 165.534 36.3384C165.734 36.4124 165.947 36.4437 166.16 36.43C166.692 36.4432 167.213 36.2777 167.64 35.96L168.64 38.54C168.237 38.8351 167.783 39.0522 167.3 39.18V39.19Z" fill="#1D1D1B"/>
<path d="M67.28 29.16C66.5219 29.1349 65.7801 29.3834 65.19 29.86C64.6293 30.3532 64.2728 31.0378 64.19 31.78H70.4C70.3056 31.0361 69.936 30.3546 69.364 29.8696C68.7921 29.3847 68.0593 29.1315 67.31 29.16H67.28Z" fill="#1D1D1B"/>
</g>
<defs>
<clipPath id="clip0_1_7">
<rect width="185.05" height="73.33" fill="white"/>
</clipPath>
</defs>
</svg>
